<!DOCTYPE svg PUBLIC "-//W3C//DTD SVG 20010904//EN" "http://www.w3.org/TR/2001/REC-SVG-20010904/DTD/svg10.dtd">
<svg version="1.0" xmlns="http://www.w3.org/2000/svg" width="512px" height="512px" viewBox="0 0 5120 5120" preserveAspectRatio="xMidYMid meet">
<g id="layer101" fill="#ffffff" stroke="none">
 <path d="M535 5084 c-131 -48 -177 -215 -84 -301 38 -34 70 -42 221 -53 158 -12 309 -47 459 -106 215 -83 529 -256 811 -444 l126 -85 -53 -7 c-188 -25 -459 -186 -640 -380 -194 -208 -305 -425 -346 -678 -15 -92 -12 -299 6 -400 46 -262 174 -528 389 -814 246 -325 573 -591 961 -781 250 -123 421 -187 990 -370 165 -53 352 -117 415 -142 293 -116 491 -245 631 -411 29 -34 55 -62 59 -62 7 0 100 314 154 520 254 974 335 1848 235 2559 -136 971 -626 1644 -1289 1772 -112 21 -290 17 -410 -9 -312 -70 -530 -194 -673 -385 l-36 -47 182 -183 c507 -506 911 -1120 1212 -1842 94 -226 243 -660 231 -672 -2 -2 -20 36 -41 84 -156 366 -452 864 -738 1245 -313 417 -769 883 -1145 1171 -355 271 -931 619 -1252 755 -191 81 -288 98 -375 66z"/>
 </g>

</svg>